<?xml version="1.0" encoding="UTF-8"?>
<svg version="1.1" xmlns="http://www.w3.org/2000/svg" width="204" height="207">
<path d="M0 0 C67.32 0 134.64 0 204 0 C204 68.31 204 136.62 204 207 C136.68 207 69.36 207 0 207 C0 138.69 0 70.38 0 0 Z " fill="#EAEAEA" transform="translate(0,0)"/>
<path d="M0 0 C1.23688065 0.00888245 2.47376129 0.01776489 3.74812317 0.0269165 C4.43131119 0.0263324 5.11449921 0.02574829 5.81838989 0.02514648 C8.07518945 0.02793191 10.3306659 0.0590425 12.5872345 0.09039307 C14.15235675 0.0978539 15.71748835 0.10354758 17.28262329 0.10754395 C21.40104486 0.12281291 25.5189017 0.16210495 29.63710022 0.20635986 C33.83980164 0.24728573 38.04259435 0.26554918 42.24543762 0.28570557 C50.49113943 0.32859856 58.73638233 0.39686446 66.98176575 0.48101807 C66.99111145 1.11604248 67.00045715 1.75106689 67.01008606 2.40533447 C67.06405307 5.30632607 67.14764702 8.2057505 67.23176575 11.10601807 C67.24594543 12.1050415 67.26012512 13.10406494 67.2747345 14.13336182 C67.47495623 20.18005819 67.91535046 23.89517017 71.98176575 28.48101807 C75.26923991 30.67266751 76.46671399 30.76781193 80.3059845 30.89508057 C81.84802551 30.95308838 81.84802551 30.95308838 83.42121887 31.01226807 C84.49307434 31.04320557 85.56492981 31.07414307 86.66926575 31.10601807 C87.75272278 31.14468994 88.83617981 31.18336182 89.95246887 31.22320557 C92.62873042 31.31752315 95.30498418 31.40311812 97.98176575 31.48101807 C98.0511884 44.85870473 98.10453769 58.23634874 98.13720226 71.61417866 C98.15287734 77.82563438 98.17414935 84.03696712 98.20808411 90.24835205 C98.24061165 96.23946026 98.25860488 102.23044996 98.26639748 108.22163963 C98.27195286 110.51066136 98.28280073 112.79967639 98.29895592 115.08864784 C98.32064215 118.28769723 98.32373633 121.48625305 98.32234192 124.68536377 C98.33312775 125.63770401 98.34391357 126.59004425 98.35502625 127.57124329 C98.35090225 128.44202515 98.34677826 129.31280701 98.3425293 130.2099762 C98.34529468 130.96676824 98.34806005 131.72356028 98.35090923 132.50328541 C97.87300891 135.06369651 97.05865297 135.94298244 94.98176575 137.48101807 C92.32341947 137.74255929 89.9049147 137.83040929 87.251297 137.77398682 C86.50087631 137.76974197 85.75045563 137.76549713 84.97729492 137.76112366 C82.58258549 137.74434257 80.18872041 137.70669297 77.79426575 137.66851807 C76.16992895 137.65347042 74.54557895 137.63978215 72.92121887 137.62750244 C68.94107627 137.59444112 64.96156412 137.542664 60.98176575 137.48101807 C60.98176575 133.19101807 60.98176575 128.90101807 60.98176575 124.48101807 C65.43676575 123.98601807 65.43676575 123.98601807 69.98176575 123.48101807 C70.47676575 121.50101807 70.47676575 121.50101807 70.98176575 119.48101807 C69.80025553 117.53183101 69.80025553 117.53183101 67.938797 115.76617432 C67.2768634 115.07974854 66.61492981 114.39332275 65.93293762 113.68609619 C65.2271759 112.97904541 64.52141418 112.27199463 63.79426575 111.54351807 C62.4242512 110.14005716 61.0557223 108.73514423 59.688797 107.32867432 C59.03991516 106.66625732 58.39103333 106.00384033 57.7224884 105.3213501 C55.98176575 103.48101807 55.98176575 103.48101807 53.6809845 100.60211182 C51.57975779 97.97920124 49.90940593 96.63015636 46.55207825 96.09039307 C43.02647078 96.62619967 42.10989274 98.00670482 39.85676575 100.73101807 C37.3027812 103.75287541 34.76260981 106.75003136 32.0247345 109.60601807 C31.2815094 110.38670654 31.2815094 110.38670654 30.52326965 111.1831665 C29.55901459 112.19230766 28.58888082 113.195874 27.61213684 114.19293213 C24.58259366 117.41051592 23.08707148 120.21137993 21.98176575 124.48101807 C25.61176575 124.48101807 29.24176575 124.48101807 32.98176575 124.48101807 C32.98176575 128.77101807 32.98176575 133.06101807 32.98176575 137.48101807 C27.90977686 137.55515328 22.83810307 137.60961258 17.76570129 137.64581299 C16.04005948 137.66090323 14.31445603 137.68137782 12.58894348 137.70733643 C10.10911087 137.74371016 7.62978511 137.76074165 5.1497345 137.77398682 C3.9917762 137.7972126 3.9917762 137.7972126 2.8104248 137.82090759 C-2.52993078 137.82258706 -2.52993078 137.82258706 -4.7222538 136.28905392 C-6.48070626 133.83581854 -6.3956078 132.21876182 -6.39918518 129.21186829 C-6.40764465 128.11968491 -6.41610413 127.02750153 -6.42481995 125.90222168 C-6.41571091 124.10443268 -6.41571091 124.10443268 -6.40641785 122.27032471 C-6.4116748 121.00834763 -6.41693176 119.74637054 -6.42234802 118.44615173 C-6.43603711 114.98327363 -6.43071622 111.52066335 -6.42121077 108.0577805 C-6.41362069 104.43480912 -6.42065811 100.81186082 -6.42536926 97.18888855 C-6.43082943 91.10336181 -6.42362915 85.01794425 -6.40934753 78.93243408 C-6.39302776 71.89722087 -6.39830344 64.86226857 -6.41482675 57.82706171 C-6.42844299 51.78790017 -6.43036041 45.74881715 -6.42251074 39.70964521 C-6.41783401 36.10229081 -6.41720914 32.495059 -6.42712021 28.88771248 C-6.43739915 24.86535331 -6.42315027 20.84344339 -6.40641785 16.82110596 C-6.41249054 15.62460419 -6.41856323 14.42810242 -6.42481995 13.19534302 C-6.41636047 12.10033981 -6.407901 11.00533661 -6.39918518 9.87715149 C-6.3980541 8.92607041 -6.39692303 7.97498934 -6.39575768 6.99508762 C-5.74923873 2.68967635 -4.32568519 0.68938742 0 0 Z " fill="#FAFBFC" transform="translate(57.01823425292969,37.51898193359375)"/>
<path d="M0 0 C4.29 0 8.58 0 13 0 C13 4.29 13 8.58 13 13 C16.96 13 20.92 13 25 13 C25 8.71 25 4.42 25 0 C29.29 0 33.58 0 38 0 C38 4.29 38 8.58 38 13 C42.29 13 46.58 13 51 13 C51 8.71 51 4.42 51 0 C55.29 0 59.58 0 64 0 C64 4.29 64 8.58 64 13 C64.99 12.67 65.98 12.34 67 12 C68.56118428 11.93259135 70.1250252 11.91485544 71.6875 11.9375 C73.8221875 11.9684375 73.8221875 11.9684375 76 12 C76 8.04 76 4.08 76 0 C80.29 0 84.58 0 89 0 C89 4.29 89 8.58 89 13 C93.29 13 97.58 13 102 13 C102 8.71 102 4.42 102 0 C106.29 0 110.58 0 115 0 C115 3.96 115 7.92 115 12 C118.96 12 122.92 12 127 12 C127 8.04 127 4.08 127 0 C131.29 0 135.58 0 140 0 C140 4.29 140 8.58 140 13 C136.04 13 132.08 13 128 13 C128 16.96 128 20.92 128 25 C130.97 25 133.94 25 137 25 C136.01 28.3 135.02 31.6 134 35 C133.16408325 34.51366089 132.3281665 34.02732178 131.46691895 33.52624512 C127.53343236 31.79460247 124.81335453 31.60780279 120.52929688 31.58007812 C119.80654068 31.57160858 119.08378448 31.56313904 118.33912659 31.55441284 C115.96548558 31.53113768 113.59249617 31.5300182 111.21875 31.53125 C109.56017806 31.52414381 107.90160856 31.51644414 106.24304199 31.50817871 C102.77312375 31.49475657 99.30343298 31.49315539 95.83349609 31.49902344 C91.3946538 31.50492439 86.95690344 31.47430204 82.5182724 31.43390656 C79.09521643 31.40801707 75.67242321 31.4051531 72.24928284 31.40879822 C70.61305492 31.40710883 68.97681463 31.39748367 67.34068298 31.37965393 C65.04995183 31.35743207 62.7614289 31.36717842 60.47070312 31.38476562 C59.16975708 31.38271118 57.86881104 31.38065674 56.52844238 31.37854004 C51.87781428 32.19764911 50.28079443 33.65162395 47 37 C45.98919528 40.03241416 45.8671293 42.08305075 45.85282898 45.25569153 C45.84567368 46.34498459 45.83851837 47.43427765 45.83114624 48.55657959 C45.82845734 49.7519635 45.82576843 50.94734741 45.82299805 52.17895508 C45.81642685 53.43771957 45.80985565 54.69648407 45.80308533 55.99339294 C45.78206513 60.16875946 45.7716854 64.34412625 45.76171875 68.51953125 C45.75767054 69.95790819 45.7535536 71.39628494 45.74936867 72.83466148 C45.73032209 79.59215371 45.71608951 86.34963504 45.7077567 93.10714895 C45.69798349 100.90364677 45.67165986 108.69986075 45.63125581 116.49625856 C45.60108487 122.5252401 45.58628694 128.5541403 45.58297569 134.58319587 C45.58062644 138.1828739 45.57168278 141.78224852 45.54651451 145.38184547 C45.51887961 149.39903226 45.52306783 153.41558551 45.5300293 157.43286133 C45.51081421 159.21682816 45.51081421 159.21682816 45.49121094 161.03683472 C45.53086369 167.30556435 45.66458992 171.30012549 50 176 C53.75663168 178.50442112 56.81008125 178.34885437 61.16796875 178.4140625 C61.96278152 178.43342865 62.7575943 178.4527948 63.57649231 178.4727478 C66.11338595 178.53249442 68.65032509 178.57890883 71.1875 178.625 C72.90822284 178.66318435 74.62892665 178.70223635 76.34960938 178.7421875 C80.56625165 178.83819179 84.7829834 178.92224076 89 179 C89 182.96 89 186.92 89 191 C85.37 191.33 81.74 191.66 78 192 C77.67 195.96 77.34 199.92 77 204 C72.71 204 68.42 204 64 204 C64 199.71 64 195.42 64 191 C59.71 191 55.42 191 51 191 C51 195.29 51 199.58 51 204 C46.71 204 42.42 204 38 204 C38 199.71 38 195.42 38 191 C29.75 191 21.5 191 13 191 C13 187.04 13 183.08 13 179 C16.96 178.67 20.92 178.34 25 178 C25.33 174.04 25.66 170.08 26 166 C29.96 166 33.92 166 38 166 C38 161.71 38 157.42 38 153 C34.04 153 30.08 153 26 153 C26 148.71 26 144.42 26 140 C29.96 140 33.92 140 38 140 C38 136.04 38 132.08 38 128 C34.04 128 30.08 128 26 128 C26.020625 129.794375 26.04125 131.58875 26.0625 133.4375 C26.0838122 135.29166122 26.07226502 137.14712498 26 139 C25 140 25 140 22.27734375 140.09765625 C17.63867188 140.04882812 17.63867188 140.04882812 13 140 C13 144.29 13 148.58 13 153 C8.71 153 4.42 153 0 153 C0 102.51 0 52.02 0 0 Z " fill="#EAEBEC" transform="translate(0,2)"/>
<path d="M0 0 C7.4878787 3.863852 11.31536232 8.24713858 14.125 16.25 C15.35096372 23.17246757 14.00186991 29.39668661 10.125 35.25 C5.68868581 40.20596922 1.24144869 42.68846741 -4.875 45.25 C-4.87554477 45.80015054 -4.87608953 46.35030107 -4.87665081 46.91712284 C-4.89163776 60.32214494 -4.93447676 73.72683101 -5.00709057 87.13166904 C-5.04136889 93.61427492 -5.06647196 100.09664491 -5.07055664 106.5793457 C-5.07483762 112.83653075 -5.10328508 119.09318358 -5.14843178 125.35020256 C-5.16141295 127.73634681 -5.1657123 130.12255473 -5.16115379 132.50872993 C-5.15625257 135.85348985 -5.182322 139.19669147 -5.21557617 142.54125977 C-5.20695053 143.5259726 -5.19832489 144.51068542 -5.18943787 145.52523804 C-5.29805396 152.05003884 -6.50572 155.35173009 -10.875 160.25 C-14.87606322 162.69665414 -19.01315223 162.51307207 -23.58203125 162.4453125 C-24.30742599 162.4424826 -25.03282074 162.43965271 -25.78019714 162.43673706 C-28.08280368 162.42559799 -30.38501227 162.40050566 -32.6875 162.375 C-34.25455165 162.36496206 -35.82160943 162.35583763 -37.38867188 162.34765625 C-41.21759978 162.3256793 -45.04623256 162.29119339 -48.875 162.25 C-48.84019531 163.02085937 -48.80539063 163.79171875 -48.76953125 164.5859375 C-48.74246094 165.58882812 -48.71539062 166.59171875 -48.6875 167.625 C-48.63529297 169.12160156 -48.63529297 169.12160156 -48.58203125 170.6484375 C-48.72705078 171.93621094 -48.72705078 171.93621094 -48.875 173.25 C-52.1411953 175.42746353 -53.12445834 175.50606429 -56.91015625 175.515625 C-58.37098633 175.51949219 -58.37098633 175.51949219 -59.86132812 175.5234375 C-60.87646484 175.51570312 -61.89160156 175.50796875 -62.9375 175.5 C-63.95650391 175.50773438 -64.97550781 175.51546875 -66.02539062 175.5234375 C-66.99798828 175.52085937 -67.97058594 175.51828125 -68.97265625 175.515625 C-69.86476807 175.51336914 -70.75687988 175.51111328 -71.67602539 175.50878906 C-73.875 175.25 -73.875 175.25 -75.875 173.25 C-76.0703125 170.6484375 -76.0703125 170.6484375 -76 167.625 C-75.98195312 166.62210938 -75.96390625 165.61921875 -75.9453125 164.5859375 C-75.92210937 163.81507813 -75.89890625 163.04421875 -75.875 162.25 C-76.99994873 162.27094727 -78.12489746 162.29189453 -79.28393555 162.31347656 C-83.46772474 162.38601523 -87.65145861 162.4318499 -91.83569336 162.46972656 C-93.6447078 162.48981053 -95.45365757 162.51708341 -97.26245117 162.55175781 C-99.86653621 162.60041892 -102.46976115 162.62300051 -105.07421875 162.640625 C-106.28231453 162.67159271 -106.28231453 162.67159271 -107.51481628 162.70318604 C-111.34073445 162.70470614 -113.38942349 162.54039339 -116.73754883 160.53808594 C-120.52850962 156.47996092 -122.24927656 153.33853106 -122.25595093 147.74707031 C-122.2644104 146.65358276 -122.27286987 145.56009521 -122.28158569 144.43347168 C-122.275513 143.24370728 -122.26944031 142.05394287 -122.26318359 140.828125 C-122.26844055 139.56746216 -122.27369751 138.30679932 -122.27911377 137.00793457 C-122.29276825 133.5575034 -122.28749661 130.1073419 -122.27797651 126.65690613 C-122.27037016 123.04242233 -122.27742823 119.42796129 -122.28213501 115.81347656 C-122.28758973 109.74409855 -122.28040844 103.67483012 -122.26611328 97.60546875 C-122.24978723 90.59295494 -122.25507595 83.58070281 -122.2715925 76.56819534 C-122.28521549 70.5425658 -122.28712307 64.51701494 -122.27927649 58.49137497 C-122.27460442 54.89463767 -122.27396222 51.2980233 -122.28388596 47.70129395 C-122.29417743 43.6913305 -122.27990503 39.68181673 -122.26318359 35.671875 C-122.26925629 34.4821106 -122.27532898 33.29234619 -122.28158569 32.06652832 C-122.27312622 30.97304077 -122.26466675 29.87955322 -122.25595093 28.75292969 C-122.25481985 27.80536804 -122.25368877 26.8578064 -122.25252342 25.88153076 C-121.64192502 21.62534852 -119.60122991 18.99399151 -116.64831543 15.96885681 C-113.0655596 13.74832171 -110.70402278 13.74882559 -106.50195312 13.74829102 C-105.41562843 13.74018654 -105.41562843 13.74018654 -104.30735779 13.73191833 C-101.92323418 13.71945295 -99.54032343 13.73590614 -97.15625 13.75390625 C-95.49385515 13.75375121 -93.83145994 13.75226139 -92.16906738 13.74949646 C-88.68888322 13.74811346 -85.20911167 13.76065368 -81.72900391 13.78344727 C-77.27344212 13.81183182 -72.81856569 13.80909337 -68.36295319 13.79635715 C-64.93135754 13.78939416 -61.49991962 13.7971963 -58.06834412 13.80961418 C-56.42574163 13.81412267 -54.78312218 13.81447075 -53.14051819 13.81054878 C-50.8426761 13.8076304 -48.54577046 13.82417221 -46.24804688 13.84594727 C-44.94186401 13.85135025 -43.63568115 13.85675323 -42.28991699 13.86231995 C-38.69390743 14.27055862 -36.7794822 15.14946647 -33.875 17.25 C-33.606875 16.60933594 -33.33875 15.96867187 -33.0625 15.30859375 C-29.77545785 8.05331322 -25.77020061 2.60285449 -18.453125 -0.9140625 C-12.31544187 -2.90415976 -5.91529502 -2.51251661 0 0 Z M-114.53983021 20.94280529 C-116.15411345 23.73231249 -116.25213171 25.43469266 -116.25595093 28.64613342 C-116.2644104 29.74113663 -116.27286987 30.83613983 -116.28158569 31.96432495 C-116.275513 33.16082672 -116.26944031 34.35732849 -116.26318359 35.59008789 C-116.26844055 36.85381729 -116.27369751 38.11754669 -116.27911377 39.41957092 C-116.29278434 42.88232285 -116.28749033 46.34480648 -116.27797651 49.80756307 C-116.27038016 53.43099645 -116.2774253 57.0544069 -116.28213501 60.67784119 C-116.28759195 66.76158778 -116.2804019 72.84522508 -116.26611328 78.92895508 C-116.24977947 85.964777 -116.25508068 93.00033822 -116.2715925 100.03615385 C-116.28520044 106.07616918 -116.28713067 112.11610598 -116.27927649 118.15613168 C-116.27459707 121.76399825 -116.27398255 125.3717422 -116.28388596 128.97960091 C-116.29415028 132.9996603 -116.27992967 137.01926911 -116.26318359 141.03930664 C-116.26925629 142.23783264 -116.27532898 143.43635864 -116.28158569 144.67120361 C-116.27312622 145.76338699 -116.26466675 146.85557037 -116.25595093 147.98085022 C-116.25481985 148.93155427 -116.25368877 149.88225832 -116.25252342 150.86177158 C-116.0518812 153.28867824 -116.0518812 153.28867824 -114.57901955 155.05803585 C-111.63236882 157.11922232 -108.17086557 156.61244471 -104.70703125 156.54296875 C-103.91221848 156.53872391 -103.1174057 156.53447906 -102.29850769 156.53010559 C-99.76115979 156.5133193 -97.22460762 156.47566824 -94.6875 156.4375 C-92.96680835 156.42245305 -91.24610424 156.40876466 -89.52539062 156.39648438 C-85.30828738 156.36341607 -81.09177858 156.31163495 -76.875 156.25 C-76.875 151.96 -76.875 147.67 -76.875 143.25 C-80.505 143.25 -84.135 143.25 -87.875 143.25 C-86.7685324 137.71766201 -83.96641367 135.06367891 -80.03125 131.328125 C-77.9675085 129.33915674 -76.06836235 127.28634182 -74.1875 125.125 C-73.61902344 124.47273438 -73.05054688 123.82046875 -72.46484375 123.1484375 C-71.44489506 121.93051351 -70.45446146 120.68688572 -69.50390625 119.4140625 C-67.64621616 116.94871677 -66.46325843 115.41591904 -63.4375 114.5625 C-57.50202501 116.15494451 -53.64647354 121.46951336 -49.82421875 125.99609375 C-48.3917552 127.65246944 -46.90686682 129.26387175 -45.39453125 130.84765625 C-44.56308594 131.72292969 -43.73164062 132.59820312 -42.875 133.5 C-42.09125 134.30953125 -41.3075 135.1190625 -40.5 135.953125 C-39.96375 136.71109375 -39.4275 137.4690625 -38.875 138.25 C-39.37 140.23 -39.37 140.23 -39.875 142.25 C-44.33 142.745 -44.33 142.745 -48.875 143.25 C-48.875 147.54 -48.875 151.83 -48.875 156.25 C-44.08784377 156.32415168 -39.30102173 156.37860204 -34.51342773 156.41479492 C-32.88478777 156.42988243 -31.25618844 156.45035506 -29.62768555 156.47631836 C-27.28684465 156.51270449 -24.94654081 156.5297262 -22.60546875 156.54296875 C-21.87724411 156.55845261 -21.14901947 156.57393646 -20.39872742 156.58988953 C-16.54258983 156.64983473 -16.54258983 156.64983473 -13.18119335 154.99565411 C-11.55315724 152.81987522 -11.50437369 151.67806641 -11.51423645 148.97895813 C-11.51011246 148.10817627 -11.50598846 147.23739441 -11.5017395 146.34022522 C-11.51252533 145.38788498 -11.52331116 144.43554474 -11.53442383 143.4543457 C-11.53398575 142.44928986 -11.53354767 141.44423401 -11.53309631 140.40872192 C-11.53518925 137.08087861 -11.5585445 133.75353674 -11.58203125 130.42578125 C-11.5876254 128.12078629 -11.59189635 125.81578776 -11.59489441 123.51078796 C-11.60635739 117.43946512 -11.63583726 111.36835704 -11.66900635 105.29711914 C-11.69967582 99.10370794 -11.71339307 92.9102621 -11.72851562 86.71679688 C-11.76070541 74.56110347 -11.81191945 62.40556958 -11.875 50.25 C-12.8808313 50.23598145 -12.8808313 50.23598145 -13.90698242 50.22167969 C-16.95955567 50.16783404 -20.01061982 50.08421505 -23.0625 50 C-24.11759766 49.98582031 -25.17269531 49.97164062 -26.25976562 49.95703125 C-34.07726826 49.71042233 -34.07726826 49.71042233 -37.98828125 47.453125 C-41.23660696 43.66004901 -42.11528948 41.02836811 -42.2890625 36.046875 C-42.32773438 35.0671875 -42.36640625 34.0875 -42.40625 33.078125 C-42.4371875 32.06234375 -42.468125 31.0465625 -42.5 30 C-42.53867188 28.96875 -42.57734375 27.9375 -42.6171875 26.875 C-42.71131674 24.3335106 -42.79694979 21.79202567 -42.875 19.25 C-51.9499855 19.15737935 -61.02480868 19.08627574 -70.10016346 19.04275131 C-74.31409697 19.02186322 -78.52770748 18.99352389 -82.74145508 18.94824219 C-86.80687833 18.90482709 -90.87199064 18.8808721 -94.93762779 18.87049103 C-96.48983342 18.86309177 -98.04202175 18.84864277 -99.59409523 18.82707977 C-101.76598707 18.79810171 -103.93658899 18.79404139 -106.10864258 18.79589844 C-107.34552322 18.78701599 -108.58240387 18.77813354 -109.85676575 18.76898193 C-112.90860543 18.94909973 -112.90860543 18.94909973 -114.53983021 20.94280529 Z " fill="#9AC0DD" transform="translate(166.875,18.75)"/>
<path d="M0 0 C3.96 0 7.92 0 12 0 C12 3.96 12 7.92 12 12 C8.04 12 4.08 12 0 12 C0 16.29 0 20.58 0 25 C3.96 25 7.92 25 12 25 C12 29.29 12 33.58 12 38 C8.04 38 4.08 38 0 38 C0.020625 39.959375 0.04125 41.91875 0.0625 43.9375 C0.08377188 45.95832876 0.07244053 47.98035801 0 50 C-1 51 -1 51 -3.72265625 51.09765625 C-8.36132812 51.04882812 -8.36132812 51.04882812 -13 51 C-13 54.96 -13 58.92 -13 63 C-4.75 63 3.5 63 12 63 C12 67.29 12 71.58 12 76 C16.29 76 20.58 76 25 76 C25 71.71 25 67.42 25 63 C29.29 63 33.58 63 38 63 C38 67.29 38 71.58 38 76 C42.29 76 46.58 76 51 76 C50.979375 74.040625 50.95875 72.08125 50.9375 70.0625 C50.91622812 68.04167124 50.92755947 66.01964199 51 64 C52 63 52 63 54.50390625 62.90234375 C57.3359375 62.93489583 60.16796875 62.96744792 63 63 C63 59.04 63 55.08 63 51 C63.66 51 64.32 51 65 51 C65.06058594 51.77085937 65.12117188 52.54171875 65.18359375 53.3359375 C65.26738281 54.33882812 65.35117188 55.34171875 65.4375 56.375 C65.51871094 57.37273437 65.59992188 58.37046875 65.68359375 59.3984375 C65.84965626 61.97927613 65.84965626 61.97927613 67 64 C65.515 64.495 65.515 64.495 64 65 C63.67 68.63 63.34 72.26 63 76 C68.94 76 74.88 76 81 76 C81 76.33 81 76.66 81 77 C45.69 77 10.38 77 -26 77 C-26 59.84 -26 42.68 -26 25 C-21.71 25 -17.42 25 -13 25 C-13 20.71 -13 16.42 -13 12 C-7.06 11.505 -7.06 11.505 -1 11 C-0.67 7.37 -0.34 3.74 0 0 Z " fill="#E8E8E8" transform="translate(26,130)"/>
<path d="M0 0 C6.42975635 3.72249052 9.47659782 8.12990337 11.9296875 15.1171875 C13.15565122 22.03965507 11.80655741 28.26387411 7.9296875 34.1171875 C2.49523175 40.18821724 -3.60690503 44.11366115 -11.8828125 44.6171875 C-18.53867447 44.37405099 -24.28651996 41.96999969 -28.9609375 37.1796875 C-34.45939831 30.13311636 -35.87470782 23.97830425 -35.0703125 15.1171875 C-32.96889286 8.11245537 -28.73796719 2.37817916 -22.3828125 -1.3203125 C-14.87795694 -4.62875073 -7.14794709 -3.68844245 0 0 Z " fill="#2C6A3B" transform="translate(169.0703125,19.8828125)"/>
<path d="M0 0 C6.25498433 1.98328771 10.54568128 7.72289786 14.6484375 12.59375 C16.06685229 14.23795327 17.53948648 15.83571612 19.0390625 17.40625 C19.87179688 18.2828125 20.70453125 19.159375 21.5625 20.0625 C22.34625 20.87203125 23.13 21.6815625 23.9375 22.515625 C24.47375 23.27359375 25.01 24.0315625 25.5625 24.8125 C25.2325 26.1325 24.9025 27.4525 24.5625 28.8125 C20.9325 28.8125 17.3025 28.8125 13.5625 28.8125 C13.5625 39.3725 13.5625 49.9325 13.5625 60.8125 C9.67558052 62.75595974 4.83735419 61.99730803 0.5625 62 C-0.46101563 62.01224609 -1.48453125 62.02449219 -2.5390625 62.03710938 C-3.51617187 62.03904297 -4.49328125 62.04097656 -5.5 62.04296875 C-6.84771484 62.04913208 -6.84771484 62.04913208 -8.22265625 62.05541992 C-10.4375 61.8125 -10.4375 61.8125 -12.4375 59.8125 C-12.66455078 56.73974609 -12.66455078 56.73974609 -12.6328125 52.8359375 C-12.6299826 52.15069 -12.62715271 51.4654425 -12.62423706 50.75942993 C-12.61303281 48.56860973 -12.58792859 46.37819684 -12.5625 44.1875 C-12.55247048 42.7031309 -12.54334458 41.2187554 -12.53515625 39.734375 C-12.51309294 36.09361739 -12.47856176 32.45309844 -12.4375 28.8125 C-16.0675 28.8125 -19.6975 28.8125 -23.4375 28.8125 C-23.4375 23.8125 -23.4375 23.8125 -21.93359375 21.85546875 C-21.25425781 21.24316406 -20.57492188 20.63085938 -19.875 20 C-17.04431176 17.3440456 -14.35485348 14.6847973 -11.8125 11.75 C-11.2453125 11.09902344 -10.678125 10.44804687 -10.09375 9.77734375 C-8.98259446 8.45915688 -7.89915563 7.11713852 -6.84375 5.75390625 C-3.12778662 1.04259554 -3.12778662 1.04259554 0 0 Z " fill="#A9E08E" transform="translate(103.4375,132.1875)"/>
<path d="M0 0 C67.32 0 134.64 0 204 0 C204 0.66 204 1.32 204 2 C199.71 2 195.42 2 191 2 C191 6.29 191 10.58 191 15 C187.04 15 183.08 15 179 15 C179 10.71 179 6.42 179 2 C174.71 2 170.42 2 166 2 C166 6.29 166 10.58 166 15 C157.42 15 148.84 15 140 15 C140 10.71 140 6.42 140 2 C135.71 2 131.42 2 127 2 C127 5.96 127 9.92 127 14 C123.04 14 119.08 14 115 14 C115 10.04 115 6.08 115 2 C110.71 2 106.42 2 102 2 C102 6.29 102 10.58 102 15 C97.71 15 93.42 15 89 15 C89 10.71 89 6.42 89 2 C84.71 2 80.42 2 76 2 C76 5.96 76 9.92 76 14 C72.04 14.33 68.08 14.66 64 15 C64 10.71 64 6.42 64 2 C59.71 2 55.42 2 51 2 C51 6.29 51 10.58 51 15 C46.71 15 42.42 15 38 15 C38 10.71 38 6.42 38 2 C33.71 2 29.42 2 25 2 C25 6.29 25 10.58 25 15 C21.04 15 17.08 15 13 15 C13 10.71 13 6.42 13 2 C8.71 2 4.42 2 0 2 C0 1.34 0 0.68 0 0 Z " fill="#E5E6E6" transform="translate(0,0)"/>
<path d="M0 0 C5.48248616 2.44427508 7.49070708 6.85800801 9.9375 12.125 C12.96136385 18.27821132 17.63505688 20.77226991 24 23 C25.57274113 23.23367473 27.15194756 23.42697655 28.734375 23.58203125 C29.53584961 23.66300049 30.33732422 23.74396973 31.16308594 23.82739258 C31.76926758 23.88435303 32.37544922 23.94131348 33 24 C33.11695568 37.96045183 33.204715 51.92082736 33.25906086 65.88166904 C33.2851453 72.36440088 33.32052365 78.84680339 33.37719727 85.3293457 C33.43155612 91.58633088 33.46142921 97.84299946 33.47438622 104.10020256 C33.48361897 106.48642905 33.50164847 108.87263836 33.52865028 111.25872993 C33.5649904 114.60328633 33.56994303 117.94653745 33.56762695 121.29125977 C33.58560333 122.2759726 33.60357971 123.26068542 33.62210083 124.27523804 C33.57313111 130.8181306 32.38648459 134.0932515 28 139 C23.99893678 141.44665414 19.86184777 141.26307207 15.29296875 141.1953125 C14.20487663 141.19106766 14.20487663 141.19106766 13.09480286 141.18673706 C10.79219632 141.17559799 8.48998773 141.15050566 6.1875 141.125 C4.62044835 141.11496206 3.05339057 141.10583763 1.48632812 141.09765625 C-2.34259978 141.0756793 -6.17123256 141.04119339 -10 141 C-10 144.63 -10 148.26 -10 152 C-10.33 152 -10.66 152 -11 152 C-11 141.77 -11 131.54 -11 121 C-7.7 121 -4.4 121 -1 121 C-1 121.33 -1 121.66 -1 122 C-3.97 122 -6.94 122 -10 122 C-10 126.29 -10 130.58 -10 135 C-5.19414942 134.90657189 -0.38880906 134.80050341 4.41650391 134.68261719 C6.0518424 134.64429148 7.68726624 134.60944493 9.32275391 134.578125 C11.6712091 134.53255158 14.01907495 134.47454633 16.3671875 134.4140625 C17.10057343 134.40251129 17.83395935 134.39096008 18.58956909 134.37905884 C22.74977105 134.38131903 22.74977105 134.38131903 26 132 C26.31290632 130.07854348 26.31290632 130.07854348 26.2784729 127.84921265 C26.28963638 126.97980545 26.30079987 126.11039825 26.31230164 125.21464539 C26.31446182 124.25870987 26.31662201 123.30277435 26.31884766 122.31787109 C26.33391609 120.81050636 26.33391609 120.81050636 26.34928894 119.27268982 C26.3802653 115.93961172 26.39719618 112.60661446 26.4140625 109.2734375 C26.43276252 106.96700335 26.45233504 104.66057612 26.4727478 102.35415649 C26.52419815 96.27474031 26.56375471 90.19530192 26.60089111 84.11578369 C26.64085005 77.91567431 26.69197928 71.71565836 26.7421875 65.515625 C26.83909949 53.34381551 26.92345523 41.17195342 27 29 C26.33468262 29.02618408 25.66936523 29.05236816 24.98388672 29.0793457 C21.94783465 29.1837546 18.91216089 29.24846348 15.875 29.3125 C14.82828125 29.35439453 13.7815625 29.39628906 12.703125 29.43945312 C3.97074572 29.57762368 3.97074572 29.57762368 0.3203125 26.66796875 C-2 24 -2 24 -3 21 C-2.34 20.34 -1.68 19.68 -1 19 C-0.63105418 16.96939341 -0.63105418 16.96939341 -0.5859375 14.6484375 C-0.54726562 13.79765625 -0.50859375 12.946875 -0.46875 12.0703125 C-0.4378125 11.18085937 -0.406875 10.29140625 -0.375 9.375 C-0.31699219 8.02921875 -0.31699219 8.02921875 -0.2578125 6.65625 C-0.16340643 4.4377073 -0.07783252 2.21917597 0 0 Z " fill="#9BC1DF" transform="translate(128,40)"/>
<path d="M0 0 C4.29 0 8.58 0 13 0 C13 16.83 13 33.66 13 51 C8.71 51 4.42 51 0 51 C0 42.42 0 33.84 0 25 C-3.96 25 -7.92 25 -12 25 C-12 21.04 -12 17.08 -12 13 C-6.555 12.505 -6.555 12.505 -1 12 C-0.67 8.04 -0.34 4.08 0 0 Z " fill="#E7E7E7" transform="translate(191,66)"/>
<path d="M0 0 C0.66 0 1.32 0 2 0 C2.06058594 0.77085937 2.12117188 1.54171875 2.18359375 2.3359375 C2.26738281 3.33882812 2.35117188 4.34171875 2.4375 5.375 C2.51871094 6.37273437 2.59992188 7.37046875 2.68359375 8.3984375 C2.84965626 10.97927613 2.84965626 10.97927613 4 13 C3.01 13.33 2.02 13.66 1 14 C0.67 17.63 0.34 21.26 0 25 C5.94 25 11.88 25 18 25 C18 25.33 18 25.66 18 26 C-17.31 26 -52.62 26 -89 26 C-89 25.67 -89 25.34 -89 25 C-84.71 25 -80.42 25 -76 25 C-76 20.71 -76 16.42 -76 12 C-67.75 12 -59.5 12 -51 12 C-51 16.29 -51 20.58 -51 25 C-46.71 25 -42.42 25 -38 25 C-38 20.71 -38 16.42 -38 12 C-33.71 12 -29.42 12 -25 12 C-25 16.29 -25 20.58 -25 25 C-20.71 25 -16.42 25 -12 25 C-12.020625 23.040625 -12.04125 21.08125 -12.0625 19.0625 C-12.08377188 17.04167124 -12.07244053 15.01964199 -12 13 C-11 12 -11 12 -8.49609375 11.90234375 C-5.6640625 11.93489583 -2.83203125 11.96744792 0 12 C0 8.04 0 4.08 0 0 Z " fill="#E6E8E7" transform="translate(89,181)"/>
<path d="M0 0 C6.25498433 1.98328771 10.54568128 7.72289786 14.6484375 12.59375 C16.06685229 14.23795327 17.53948648 15.83571612 19.0390625 17.40625 C19.87179688 18.2828125 20.70453125 19.159375 21.5625 20.0625 C22.34625 20.87203125 23.13 21.6815625 23.9375 22.515625 C24.47375 23.27359375 25.01 24.0315625 25.5625 24.8125 C25.2325 26.1325 24.9025 27.4525 24.5625 28.8125 C20.9325 28.8125 17.3025 28.8125 13.5625 28.8125 C13.5625 39.3725 13.5625 49.9325 13.5625 60.8125 C9.67558052 62.75595974 4.83735419 61.99730803 0.5625 62 C-0.46101563 62.01224609 -1.48453125 62.02449219 -2.5390625 62.03710938 C-3.51617187 62.03904297 -4.49328125 62.04097656 -5.5 62.04296875 C-6.84771484 62.04913208 -6.84771484 62.04913208 -8.22265625 62.05541992 C-10.4375 61.8125 -10.4375 61.8125 -12.4375 59.8125 C-12.66455078 56.73974609 -12.66455078 56.73974609 -12.6328125 52.8359375 C-12.6299826 52.15069 -12.62715271 51.4654425 -12.62423706 50.75942993 C-12.61303281 48.56860973 -12.58792859 46.37819684 -12.5625 44.1875 C-12.55247048 42.7031309 -12.54334458 41.2187554 -12.53515625 39.734375 C-12.51309294 36.09361739 -12.47856176 32.45309844 -12.4375 28.8125 C-16.0675 28.8125 -19.6975 28.8125 -23.4375 28.8125 C-23.4375 23.8125 -23.4375 23.8125 -21.93359375 21.85546875 C-21.25425781 21.24316406 -20.57492188 20.63085938 -19.875 20 C-17.04431176 17.3440456 -14.35485348 14.6847973 -11.8125 11.75 C-11.2453125 11.09902344 -10.678125 10.44804687 -10.09375 9.77734375 C-8.98259446 8.45915688 -7.89915563 7.11713852 -6.84375 5.75390625 C-3.12778662 1.04259554 -3.12778662 1.04259554 0 0 Z M-0.4375 5.8125 C-9.65165703 14.39390286 -9.65165703 14.39390286 -16.4375 24.8125 C-14.1275 25.1425 -11.8175 25.4725 -9.4375 25.8125 C-9.41244385 26.74634521 -9.3873877 27.68019043 -9.36157227 28.64233398 C-9.26663072 32.09575189 -9.16738742 35.5489896 -9.06518555 39.00219727 C-9.02178187 40.49889269 -8.98011087 41.99563939 -8.94018555 43.49243164 C-8.88261384 45.63964312 -8.81888284 47.78659521 -8.75390625 49.93359375 C-8.71724854 51.2270874 -8.68059082 52.52058105 -8.64282227 53.85327148 C-8.7707722 56.69805008 -8.7707722 56.69805008 -7.4375 57.8125 C-4.57280675 57.88580331 -1.73856326 57.90467831 1.125 57.875 C3.909375 57.854375 6.69375 57.83375 9.5625 57.8125 C9.8925 47.2525 10.2225 36.6925 10.5625 25.8125 C14.0275 25.3175 14.0275 25.3175 17.5625 24.8125 C15.85518146 20.53366465 12.77752704 17.50724128 9.6875 14.1875 C9.15769531 13.60226563 8.62789062 13.01703125 8.08203125 12.4140625 C4.36343595 8.38523399 4.36343595 8.38523399 -0.4375 5.8125 Z " fill="#639A5E" transform="translate(103.4375,132.1875)"/>
<path d="M0 0 C4.29 0 8.58 0 13 0 C13 4.29 13 8.58 13 13 C16.96 13 20.92 13 25 13 C25 16.96 25 20.92 25 25 C21.37 25.33 17.74 25.66 14 26 C13.67 29.96 13.34 33.92 13 38 C8.71 38 4.42 38 0 38 C0 25.46 0 12.92 0 0 Z " fill="#FDFDFD" transform="translate(0,2)"/>
<path d="M0 0 C2.83203125 0.03255208 5.6640625 0.06510417 8.49609375 0.09765625 C8.49609375 4.38765625 8.49609375 8.67765625 8.49609375 13.09765625 C12.78609375 13.09765625 17.07609375 13.09765625 21.49609375 13.09765625 C21.49609375 8.80765625 21.49609375 4.51765625 21.49609375 0.09765625 C25.78609375 0.09765625 30.07609375 0.09765625 34.49609375 0.09765625 C34.49609375 4.38765625 34.49609375 8.67765625 34.49609375 13.09765625 C38.78609375 13.09765625 43.07609375 13.09765625 47.49609375 13.09765625 C47.49609375 8.80765625 47.49609375 4.51765625 47.49609375 0.09765625 C51.45609375 0.09765625 55.41609375 0.09765625 59.49609375 0.09765625 C59.49609375 4.38765625 59.49609375 8.67765625 59.49609375 13.09765625 C63.78609375 13.09765625 68.07609375 13.09765625 72.49609375 13.09765625 C72.49609375 13.42765625 72.49609375 13.75765625 72.49609375 14.09765625 C43.12609375 14.09765625 13.75609375 14.09765625 -16.50390625 14.09765625 C-16.50390625 13.76765625 -16.50390625 13.43765625 -16.50390625 13.09765625 C-12.21390625 13.09765625 -7.92390625 13.09765625 -3.50390625 13.09765625 C-3.52453125 11.13828125 -3.54515625 9.17890625 -3.56640625 7.16015625 C-3.58767813 5.13932749 -3.57634678 3.11729824 -3.50390625 1.09765625 C-2.50390625 0.09765625 -2.50390625 0.09765625 0 0 Z " fill="#E6E8E7" transform="translate(131.50390625,192.90234375)"/>
<path d="M0 0 C4.29 0 8.58 0 13 0 C13 4.29 13 8.58 13 13 C8.71 13 4.42 13 0 13 C0 16.96 0 20.92 0 25 C-3.96 25 -7.92 25 -12 25 C-12 21.04 -12 17.08 -12 13 C-16.29 13 -20.58 13 -25 13 C-25 16.96 -25 20.92 -25 25 C-26.65 25 -28.3 25 -30 25 C-30 20.38 -30 15.76 -30 11 C-25.8984375 8.8515625 -25.8984375 8.8515625 -21.796875 6.703125 C-18.94276411 5.12049561 -18.94276411 5.12049561 -16.828125 2.796875 C-15 1 -15 1 -12 1 C-12 4.63 -12 8.26 -12 12 C-8.04 12 -4.08 12 0 12 C0 8.04 0 4.08 0 0 Z " fill="#F6F8F7" transform="translate(191,53)"/>
<path d="M0 0 C25.74 0 51.48 0 78 0 C78.495 1.98 78.495 1.98 79 4 C76.56260138 6.43739862 75.26521757 6.23817697 71.93920898 6.25994873 C70.88636719 6.25151947 70.88636719 6.25151947 69.81225586 6.24291992 C69.07229874 6.24481827 68.33234161 6.24671661 67.56996155 6.24867249 C65.11814868 6.25238461 62.6666304 6.24167089 60.21484375 6.23046875 C58.51615941 6.22927719 56.81747441 6.22882374 55.11878967 6.2290802 C51.55693443 6.22751464 47.9951796 6.21921875 44.43334961 6.20581055 C39.85754413 6.18880769 35.28184896 6.18499652 30.70601559 6.18575573 C27.19827716 6.18548441 23.69056307 6.18000955 20.18283272 6.17275429 C18.49505358 6.16956244 16.80727167 6.16759902 15.11948967 6.16686058 C12.76572806 6.16470318 10.41208577 6.15597247 8.05834961 6.14526367 C7.00247147 6.14594345 7.00247147 6.14594345 5.92526245 6.14663696 C1.11447518 6.11447518 1.11447518 6.11447518 0 5 C0 3.35 0 1.7 0 0 Z " fill="#8FBCDD" transform="translate(64,78)"/>
<path d="M0 0 C1.07461739 0.00539291 1.07461739 0.00539291 2.17094421 0.01089478 C2.92211517 0.01074875 3.67328613 0.01060272 4.44721985 0.01045227 C6.94166404 0.01115153 9.43603448 0.01894452 11.9304657 0.02676392 C13.65539509 0.02862805 15.38032501 0.03005197 17.10525513 0.03105164 C21.65418448 0.03487719 26.20308211 0.04470779 30.7519989 0.05575562 C35.39025951 0.06596893 40.02852522 0.07054908 44.66679382 0.07559204 C53.77422967 0.08633003 62.88164192 0.1034069 71.98905945 0.12442017 C71.98905945 2.10442017 71.98905945 4.08442017 71.98905945 6.12442017 C46.24905945 6.12442017 20.50905945 6.12442017 -6.01094055 6.12442017 C-6.01094055 -0.41913434 -5.92245531 0.0125394 0 0 Z " fill="#9DC3E0" transform="translate(70.01094055175781,90.87557983398438)"/>
<path d="M0 0 C7.26 0 14.52 0 22 0 C22 4.29 22 8.58 22 13 C17.71 13 13.42 13 9 13 C9 16.96 9 20.92 9 25 C5.04 25 1.08 25 -3 25 C-3 21.37 -3 17.74 -3 14 C-3.66 13.67 -4.32 13.34 -5 13 C-3.35 8.71 -1.7 4.42 0 0 Z " fill="#E8E8E7" transform="translate(182,40)"/>
<path d="M0 0 C3.96 0 7.92 0 12 0 C12 8.25 12 16.5 12 25 C3.75 25 -4.5 25 -13 25 C-13 21.04 -13 17.08 -13 13 C-7.06 12.505 -7.06 12.505 -1 12 C-0.67 8.04 -0.34 4.08 0 0 Z " fill="#FEFEFE" transform="translate(26,168)"/>
<path d="M0 0 C25.74 0 51.48 0 78 0 C78.495 1.98 78.495 1.98 79 4 C77.30331793 5.69668207 75.18867982 5.11968993 72.92559814 5.12442017 C72.19983582 5.12082489 71.47407349 5.11722961 70.72631836 5.11352539 C69.58493156 5.11374443 69.58493156 5.11374443 68.42048645 5.1139679 C65.89357702 5.11326862 63.36674038 5.10547555 60.83984375 5.09765625 C59.0924941 5.09579212 57.34514393 5.0943682 55.59779358 5.09336853 C50.98968066 5.08954293 46.38159905 5.07971229 41.77349854 5.06866455 C37.07491479 5.05845134 32.37632601 5.0538711 27.67773438 5.04882812 C18.45180913 5.03809005 9.22590716 5.02101313 0 5 C0 3.35 0 1.7 0 0 Z " fill="#95BFDE" transform="translate(64,105)"/>
<path d="M0 0 C1.99954746 -0.04254356 4.00041636 -0.04080783 6 0 C7 1 7 1 7.09765625 3.28515625 C7.06510417 5.85677083 7.03255208 8.42838542 7 11 C10.63 11 14.26 11 18 11 C18.04254356 12.99954746 18.04080783 15.00041636 18 17 C17 18 17 18 14.71484375 18.09765625 C13.34005859 18.08025391 13.34005859 18.08025391 11.9375 18.0625 C11.01839844 18.05347656 10.09929687 18.04445313 9.15234375 18.03515625 C8.44207031 18.02355469 7.73179687 18.01195313 7 18 C7.01160156 18.71027344 7.02320313 19.42054687 7.03515625 20.15234375 C7.04417969 21.07144531 7.05320313 21.99054687 7.0625 22.9375 C7.07410156 23.85402344 7.08570313 24.77054688 7.09765625 25.71484375 C7 28 7 28 6 29 C4.00041636 29.04080783 1.99954746 29.04254356 0 29 C0 25.37 0 21.74 0 18 C-3.63 18 -7.26 18 -11 18 C-11 15.69 -11 13.38 -11 11 C-7.37 11 -3.74 11 0 11 C0 7.37 0 3.74 0 0 Z " fill="#ECF3ED" transform="translate(154,26)"/>
<path d="M0 0 C4.29 0 8.58 0 13 0 C13 8.58 13 17.16 13 26 C8.71 26 4.42 26 0 26 C0 17.42 0 8.84 0 0 Z " fill="#E7E7E7" transform="translate(191,91)"/>
<path d="M0 0 C4.29 0 8.58 0 13 0 C13 8.25 13 16.5 13 25 C8.71 25 4.42 25 0 25 C0 16.75 0 8.5 0 0 Z " fill="#FEFEFE" transform="translate(0,53)"/>
<path d="M0 0 C3.96 0 7.92 0 12 0 C12 3.96 12 7.92 12 12 C8.37 12.33 4.74 12.66 1 13 C0.67 16.96 0.34 20.92 0 25 C-4.29 25 -8.58 25 -13 25 C-13 20.71 -13 16.42 -13 12 C-8.71 12 -4.42 12 0 12 C0 8.04 0 4.08 0 0 Z " fill="#FEFEFE" transform="translate(13,15)"/>
<path d="M0 0 C3.96 0 7.92 0 12 0 C12 8.58 12 17.16 12 26 C8.04 26 4.08 26 0 26 C0 17.42 0 8.84 0 0 Z " fill="#FEFEFE" transform="translate(179,91)"/>
<path d="M0 0 C3.96 0 7.92 0 12 0 C12 8.25 12 16.5 12 25 C8.04 25 4.08 25 0 25 C0 16.75 0 8.5 0 0 Z " fill="#E7E7E7" transform="translate(166,91)"/>
<path d="M0 0 C3.96 0 7.92 0 12 0 C12 8.25 12 16.5 12 25 C8.04 25 4.08 25 0 25 C0 16.75 0 8.5 0 0 Z " fill="#FEFEFE" transform="translate(26,53)"/>
<path d="M0 0 C3.96 0 7.92 0 12 0 C12 8.25 12 16.5 12 25 C8.04 25 4.08 25 0 25 C0 16.75 0 8.5 0 0 Z " fill="#E7E7E7" transform="translate(13,53)"/>
<path d="M0 0 C15.84 0 31.68 0 48 0 C48.495 2.475 48.495 2.475 49 5 C48 6 48 6 46.05747986 6.12025452 C45.20698563 6.11803391 44.35649139 6.11581329 43.48022461 6.11352539 C42.03884377 6.11341209 42.03884377 6.11341209 40.56834412 6.11329651 C39.523564 6.10813522 38.47878387 6.10297394 37.40234375 6.09765625 C36.33834854 6.0962413 35.27435333 6.09482635 34.17811584 6.09336853 C30.76454917 6.08775064 27.351047 6.07519511 23.9375 6.0625 C21.62955824 6.05748731 19.32161545 6.052924 17.01367188 6.04882812 C11.34242574 6.0377754 5.67121747 6.02101987 0 6 C0 4.02 0 2.04 0 0 Z " fill="#9DC3E0" transform="translate(64,118)"/>
<path d="M0 0 C12.54 0 25.08 0 38 0 C38 0.66 38 1.32 38 2 C37.01 2.02578125 36.02 2.0515625 35 2.078125 C24.3316131 2.32396598 24.3316131 2.32396598 15 7 C14.18066957 8.08379785 13.38826538 9.1885133 12.625 10.3125 C10 13 10 13 7.47265625 13.16015625 C4.9650387 12.9034156 2.47792509 12.46254602 0 12 C0 8.04 0 4.08 0 0 Z " fill="#E5E6E6" transform="translate(128,15)"/>
<path d="M0 0 C0.66 0 1.32 0 2 0 C2.06058594 0.77085937 2.12117188 1.54171875 2.18359375 2.3359375 C2.26738281 3.33882812 2.35117188 4.34171875 2.4375 5.375 C2.51871094 6.37273437 2.59992188 7.37046875 2.68359375 8.3984375 C2.84965626 10.97927613 2.84965626 10.97927613 4 13 C3.01 13.33 2.02 13.66 1 14 C0.67 17.63 0.34 21.26 0 25 C5.94 25 11.88 25 18 25 C18 25.33 18 25.66 18 26 C7.77 26 -2.46 26 -13 26 C-12 13 -12 13 -11 12 C-7.3308423 11.85689713 -3.67284559 11.95778338 0 12 C0 8.04 0 4.08 0 0 Z " fill="#DDDEDD" transform="translate(89,181)"/>
<path d="M0 0 C4.10592157 2.88730067 5.94505138 5.35775578 7.9375 9.9375 C10.34402303 15.06933222 12.43928929 17.74234949 17 21 C17 21.66 17 22.32 17 23 C14.91781638 23.10832169 12.83400871 23.18573541 10.75 23.25 C9.00976562 23.31960937 9.00976562 23.31960937 7.234375 23.390625 C4 23 4 23 1.59375 21.59375 C-0.86066627 17.59930783 -0.42608923 13.83509256 -0.25 9.25 C-0.23195312 8.36183594 -0.21390625 7.47367188 -0.1953125 6.55859375 C-0.14827374 4.37129152 -0.08257009 2.18620184 0 0 Z " fill="#E4EAEC" transform="translate(129,40)"/>
<path d="M0 0 C25.74 0 51.48 0 78 0 C78.495 1.98 78.495 1.98 79 4 C76.55866763 6.44133237 75.25891189 6.23458132 71.92810059 6.24884033 C71.22463501 6.24164978 70.52116943 6.23445923 69.79638672 6.22705078 C69.0548233 6.22734283 68.31325989 6.22763489 67.54922485 6.22793579 C65.09259429 6.22653994 62.63626522 6.21096698 60.1796875 6.1953125 C58.47860886 6.19158327 56.77752808 6.18873587 55.07644653 6.18673706 C50.59489024 6.17909349 46.11346317 6.15943884 41.63195801 6.1373291 C37.06064604 6.11688622 32.48931323 6.10773868 27.91796875 6.09765625 C18.94525566 6.07619359 9.97263857 6.04204896 1 6 C1 5.67 1 5.34 1 5 C2.32757828 4.98786972 2.32757828 4.98786972 3.68197632 4.97549438 C12.01081811 4.8976485 20.33949606 4.81038849 28.66812706 4.71247292 C32.95026771 4.66246419 37.23238314 4.61613478 41.51464844 4.578125 C45.64500217 4.5413297 49.77514718 4.4949859 53.90532303 4.44193649 C55.483388 4.42336181 57.06149777 4.40826528 58.63962936 4.39665604 C60.84509543 4.37984573 63.05008023 4.35082465 65.25537109 4.31884766 C66.51223724 4.30552399 67.76910339 4.29220032 69.0640564 4.2784729 C72.12174105 4.30304447 72.12174105 4.30304447 74 2 C37.37 1.505 37.37 1.505 0 1 C0 0.67 0 0.34 0 0 Z " fill="#B3D1E6" transform="translate(64,78)"/>
<path d="M0 0 C2.31 0 4.62 0 7 0 C7 8.25 7 16.5 7 25 C4.69 25 2.38 25 0 25 C0 16.75 0 8.5 0 0 Z " fill="#E6E7E7" transform="translate(38,53)"/>
<path d="M0 0 C4.29 0 8.58 0 13 0 C13 4.29 13 8.58 13 13 C8.71 13 4.42 13 0 13 C0 8.71 0 4.42 0 0 Z " fill="#FEFEFE" transform="translate(191,193)"/>
<path d="M0 0 C4.29 0 8.58 0 13 0 C13 4.29 13 8.58 13 13 C8.71 13 4.42 13 0 13 C0 8.71 0 4.42 0 0 Z " fill="#FDFDFD" transform="translate(140,193)"/>
<path d="M0 0 C4.29 0 8.58 0 13 0 C13 4.29 13 8.58 13 13 C8.71 13 4.42 13 0 13 C0 8.71 0 4.42 0 0 Z " fill="#FDFDFD" transform="translate(38,193)"/>
<path d="M0 0 C4.29 0 8.58 0 13 0 C13 4.29 13 8.58 13 13 C8.71 13 4.42 13 0 13 C0 8.71 0 4.42 0 0 Z " fill="#FDFEFE" transform="translate(0,193)"/>
<path d="M0 0 C4.29 0 8.58 0 13 0 C13 4.29 13 8.58 13 13 C8.71 13 4.42 13 0 13 C0 8.71 0 4.42 0 0 Z " fill="#E8E8E7" transform="translate(191,155)"/>
<path d="M0 0 C4.29 0 8.58 0 13 0 C13 4.29 13 8.58 13 13 C8.71 13 4.42 13 0 13 C0 8.71 0 4.42 0 0 Z " fill="#E8E8E8" transform="translate(0,155)"/>
<path d="M0 0 C4.29 0 8.58 0 13 0 C13 4.29 13 8.58 13 13 C8.71 13 4.42 13 0 13 C0 8.71 0 4.42 0 0 Z " fill="#FEFEFD" transform="translate(191,142)"/>
<path d="M0 0 C4.29 0 8.58 0 13 0 C13 4.29 13 8.58 13 13 C8.71 13 4.42 13 0 13 C0 8.71 0 4.42 0 0 Z " fill="#FEFEFD" transform="translate(0,142)"/>
<path d="M0 0 C4.29 0 8.58 0 13 0 C13 4.29 13 8.58 13 13 C8.71 13 4.42 13 0 13 C0 8.71 0 4.42 0 0 Z " fill="#E7E8E8" transform="translate(0,104)"/>
<path d="M0 0 C4.29 0 8.58 0 13 0 C13 4.29 13 8.58 13 13 C8.71 13 4.42 13 0 13 C0 8.71 0 4.42 0 0 Z " fill="#FEFEFE" transform="translate(0,91)"/>
<path d="M0 0 C4.29 0 8.58 0 13 0 C13 4.29 13 8.58 13 13 C8.71 13 4.42 13 0 13 C0 8.71 0 4.42 0 0 Z " fill="#FDFDFD" transform="translate(191,78)"/>
<path d="M0 0 C4.29 0 8.58 0 13 0 C13 4.29 13 8.58 13 13 C8.71 13 4.42 13 0 13 C0 8.71 0 4.42 0 0 Z " fill="#E8E8E8" transform="translate(0,40)"/>
<path d="M0 0 C4.29 0 8.58 0 13 0 C13 4.29 13 8.58 13 13 C8.71 13 4.42 13 0 13 C0 8.71 0 4.42 0 0 Z " fill="#FEFEFE" transform="translate(191,2)"/>
<path d="M0 0 C4.29 0 8.58 0 13 0 C13 4.29 13 8.58 13 13 C8.71 13 4.42 13 0 13 C0 8.71 0 4.42 0 0 Z " fill="#FDFDFD" transform="translate(102,2)"/>
<path d="M0 0 C4.29 0 8.58 0 13 0 C13 4.29 13 8.58 13 13 C8.71 13 4.42 13 0 13 C0 8.71 0 4.42 0 0 Z " fill="#FDFDFD" transform="translate(51,2)"/>
<path d="M0 0 C4.29 0.33 8.58 0.66 13 1 C13 4.96 13 8.92 13 13 C8.71 13 4.42 13 0 13 C0 8.71 0 4.42 0 0 Z " fill="#FDFDFD" transform="translate(51,180)"/>
<path d="M0 0 C3.96 0 7.92 0 12 0 C12 4.29 12 8.58 12 13 C8.04 13 4.08 13 0 13 C0 8.71 0 4.42 0 0 Z " fill="#FEFEFE" transform="translate(166,193)"/>
<path d="M0 0 C3.96 0 7.92 0 12 0 C12 4.29 12 8.58 12 13 C8.04 13 4.08 13 0 13 C0 8.71 0 4.42 0 0 Z " fill="#FDFDFD" transform="translate(115,193)"/>
<path d="M0 0 C3.96 0 7.92 0 12 0 C12 4.29 12 8.58 12 13 C8.04 13 4.08 13 0 13 C0 8.71 0 4.42 0 0 Z " fill="#FEFEFE" transform="translate(64,193)"/>
<path d="M0 0 C4.29 0 8.58 0 13 0 C13 3.96 13 7.92 13 12 C8.71 12 4.42 12 0 12 C0 8.04 0 4.08 0 0 Z " fill="#E7E8E7" transform="translate(191,181)"/>
<path d="M0 0 C4.29 0 8.58 0 13 0 C13 3.96 13 7.92 13 12 C8.71 12 4.42 12 0 12 C0 8.04 0 4.08 0 0 Z " fill="#FEFEFE" transform="translate(153,181)"/>
<path d="M0 0 C4.29 0 8.58 0 13 0 C13 3.96 13 7.92 13 12 C8.71 12 4.42 12 0 12 C0 8.04 0 4.08 0 0 Z " fill="#FEFEFE" transform="translate(191,168)"/>
<path d="M0 0 C4.29 0 8.58 0 13 0 C13 3.96 13 7.92 13 12 C8.71 12 4.42 12 0 12 C0 8.04 0 4.08 0 0 Z " fill="#FEFEFE" transform="translate(0,168)"/>
<path d="M0 0 C3.96 0 7.92 0 12 0 C12 4.29 12 8.58 12 13 C8.04 13 4.08 13 0 13 C0 8.71 0 4.42 0 0 Z " fill="#FEFEFE" transform="translate(179,155)"/>
<path d="M0 0 C3.96 0 7.92 0 12 0 C12 4.29 12 8.58 12 13 C8.04 13 4.08 13 0 13 C0 8.71 0 4.42 0 0 Z " fill="#FEFEFE" transform="translate(13,155)"/>
<path d="M0 0 C3.96 0 7.92 0 12 0 C12 4.29 12 8.58 12 13 C8.04 13 4.08 13 0 13 C0 8.71 0 4.42 0 0 Z " fill="#E7E8E7" transform="translate(179,142)"/>
<path d="M0 0 C3.96 0 7.92 0 12 0 C12 4.29 12 8.58 12 13 C8.04 13 4.08 13 0 13 C0 8.71 0 4.42 0 0 Z " fill="#FEFEFE" transform="translate(166,142)"/>
<path d="M0 0 C3.96 0 7.92 0 12 0 C12 4.29 12 8.58 12 13 C8.04 13 4.08 13 0 13 C0 8.71 0 4.42 0 0 Z " fill="#FEFEFE" transform="translate(26,142)"/>
<path d="M0 0 C4.29 0 8.58 0 13 0 C13 3.96 13 7.92 13 12 C8.71 12 4.42 12 0 12 C0 8.04 0 4.08 0 0 Z " fill="#FEFEFE" transform="translate(191,117)"/>
<path d="M0 0 C4.29 0 8.58 0 13 0 C13 3.96 13 7.92 13 12 C8.71 12 4.42 12 0 12 C0 8.04 0 4.08 0 0 Z " fill="#FEFEFE" transform="translate(0,117)"/>
<path d="M0 0 C3.96 0 7.92 0 12 0 C12 4.29 12 8.58 12 13 C8.04 13 4.08 13 0 13 C0 8.71 0 4.42 0 0 Z " fill="#FEFEFE" transform="translate(13,104)"/>
<path d="M0 0 C3.96 0 7.92 0 12 0 C12 4.29 12 8.58 12 13 C8.04 13 4.08 13 0 13 C0 8.71 0 4.42 0 0 Z " fill="#FEFEFE" transform="translate(26,91)"/>
<path d="M0 0 C3.96 0 7.92 0 12 0 C12 4.29 12 8.58 12 13 C8.04 13 4.08 13 0 13 C0 8.71 0 4.42 0 0 Z " fill="#E7E7E7" transform="translate(13,91)"/>
<path d="M0 0 C3.96 0 7.92 0 12 0 C12 4.29 12 8.58 12 13 C8.04 13 4.08 13 0 13 C0 8.71 0 4.42 0 0 Z " fill="#FEFEFE" transform="translate(13,40)"/>
<path d="M0 0 C4.29 0 8.58 0 13 0 C13 3.96 13 7.92 13 12 C8.71 12 4.42 12 0 12 C0 8.04 0 4.08 0 0 Z " fill="#FEFEFE" transform="translate(191,28)"/>
<path d="M0 0 C4.29 0 8.58 0 13 0 C13 3.96 13 7.92 13 12 C8.71 12 4.42 12 0 12 C0 8.04 0 4.08 0 0 Z " fill="#FEFEFE" transform="translate(89,15)"/>
<path d="M0 0 C4.29 0 8.58 0 13 0 C13 3.96 13 7.92 13 12 C8.71 12 4.42 12 0 12 C0 8.04 0 4.08 0 0 Z " fill="#E7E8E8" transform="translate(51,15)"/>
<path d="M0 0 C4.29 0 8.58 0 13 0 C13 3.96 13 7.92 13 12 C8.71 12 4.42 12 0 12 C0 8.04 0 4.08 0 0 Z " fill="#FEFEFE" transform="translate(38,15)"/>
<path d="M0 0 C4.29 0 8.58 0 13 0 C13 3.96 13 7.92 13 12 C8.71 12 4.42 12 0 12 C0 8.04 0 4.08 0 0 Z " fill="#E7E7E7" transform="translate(0,15)"/>
<path d="M0 0 C3.96 0 7.92 0 12 0 C12 4.29 12 8.58 12 13 C8.04 13 4.08 13 0 13 C0 8.71 0 4.42 0 0 Z " fill="#FEFEFE" transform="translate(166,2)"/>
<path d="M0 0 C3.96 0 7.92 0 12 0 C12 4.29 12 8.58 12 13 C8.04 13 4.08 13 0 13 C0 8.71 0 4.42 0 0 Z " fill="#FEFEFE" transform="translate(128,2)"/>
<path d="M0 0 C3.96 0 7.92 0 12 0 C12 4.29 12 8.58 12 13 C8.04 13 4.08 13 0 13 C0 8.71 0 4.42 0 0 Z " fill="#FEFEFE" transform="translate(77,2)"/>
<path d="M0 0 C3.96 0 7.92 0 12 0 C12 4.29 12 8.58 12 13 C8.04 13 4.08 13 0 13 C0 8.71 0 4.42 0 0 Z " fill="#FEFEFE" transform="translate(26,2)"/>
<path d="M0 0 C3.09244792 0.03255208 6.18489583 0.06510417 9.27734375 0.09765625 C9.27734375 4.05765625 9.27734375 8.01765625 9.27734375 12.09765625 C4.98734375 12.09765625 0.69734375 12.09765625 -3.72265625 12.09765625 C-3.8203125 3.6015625 -3.8203125 3.6015625 -3.72265625 1.09765625 C-2.72265625 0.09765625 -2.72265625 0.09765625 0 0 Z " fill="#E7E7E7" transform="translate(194.72265625,129.90234375)"/>
<path d="M0 0 C4.29 0 8.58 0 13 0 C13.09765625 8.49609375 13.09765625 8.49609375 13 11 C12 12 12 12 9.27734375 12.09765625 C6.18489583 12.06510417 3.09244792 12.03255208 0 12 C0 8.04 0 4.08 0 0 Z " fill="#E7E7E7" transform="translate(102,15)"/>
<path d="M0 0 C1.125 3.75 1.125 3.75 0 6 C3.96 6 7.92 6 12 6 C12 9.96 12 13.92 12 18 C8.04 18 4.08 18 0 18 C0 14.37 0 10.74 0 7 C-0.66 6.67 -1.32 6.34 -2 6 C-1.34 4.02 -0.68 2.04 0 0 Z " fill="#E4E5E4" transform="translate(179,47)"/>
<path d="M0 0 C3.96 0 7.92 0 12 0 C12 3.96 12 7.92 12 12 C8.87110801 12.782223 6.8599909 13.11433318 3.75 13.0625 C1.89375 13.0315625 1.89375 13.0315625 0 13 C0 8.71 0 4.42 0 0 Z " fill="#E7E7E7" transform="translate(166,155)"/>
<path d="M0 0 C3.96 0 7.92 0 12 0 C12 4.29 12 8.58 12 13 C10.7625 13.020625 9.525 13.04125 8.25 13.0625 C7.55390625 13.07410156 6.8578125 13.08570312 6.140625 13.09765625 C4 13 4 13 0 12 C0 8.04 0 4.08 0 0 Z " fill="#E7E7E7" transform="translate(26,104)"/>
<path d="M0 0 C3.96 0 7.92 0 12 0 C12.33 3.96 12.66 7.92 13 12 C8.71 12 4.42 12 0 12 C0 8.04 0 4.08 0 0 Z " fill="#E7E7E7" transform="translate(0,130)"/>
<path d="M0 0 C2.02408755 0.09002398 4.04544287 0.24641038 6.0625 0.4375 C7.71958984 0.59025391 7.71958984 0.59025391 9.41015625 0.74609375 C10.26480469 0.82988281 11.11945313 0.91367188 12 1 C12 4.63 12 8.26 12 12 C7.71 12 3.42 12 -1 12 C-1.09765625 3.50390625 -1.09765625 3.50390625 -1 1 C-0.67 0.67 -0.34 0.34 0 0 Z " fill="#FEFEFE" transform="translate(90,194)"/>
<path d="M0 0 C3.96 0 7.92 0 12 0 C12 3.96 12 7.92 12 12 C8.04 12 4.08 12 0 12 C0 8.04 0 4.08 0 0 Z " fill="#FEFEFE" transform="translate(179,181)"/>
<path d="M0 0 C3.96 0 7.92 0 12 0 C12 3.96 12 7.92 12 12 C8.04 12 4.08 12 0 12 C0 8.04 0 4.08 0 0 Z " fill="#E7E7E7" transform="translate(166,181)"/>
<path d="M0 0 C3.96 0 7.92 0 12 0 C12 3.96 12 7.92 12 12 C8.04 12 4.08 12 0 12 C0 8.04 0 4.08 0 0 Z " fill="#E7E7E7" transform="translate(179,168)"/>
<path d="M0 0 C3.96 0 7.92 0 12 0 C12 3.96 12 7.92 12 12 C8.04 12 4.08 12 0 12 C0 8.04 0 4.08 0 0 Z " fill="#FEFEFE" transform="translate(166,168)"/>
<path d="M0 0 C3.96 0 7.92 0 12 0 C12 3.96 12 7.92 12 12 C8.04 12 4.08 12 0 12 C0 8.04 0 4.08 0 0 Z " fill="#FEFEFE" transform="translate(179,130)"/>
<path d="M0 0 C3.96 0 7.92 0 12 0 C12 3.96 12 7.92 12 12 C8.04 12 4.08 12 0 12 C0 8.04 0 4.08 0 0 Z " fill="#E7E7E7" transform="translate(166,130)"/>
<path d="M0 0 C3.96 0 7.92 0 12 0 C12 3.96 12 7.92 12 12 C8.04 12 4.08 12 0 12 C0 8.04 0 4.08 0 0 Z " fill="#FEFEFE" transform="translate(13,130)"/>
<path d="M0 0 C3.96 0 7.92 0 12 0 C12 3.96 12 7.92 12 12 C8.04 12 4.08 12 0 12 C0 8.04 0 4.08 0 0 Z " fill="#E7E7E7" transform="translate(179,117)"/>
<path d="M0 0 C3.96 0 7.92 0 12 0 C12 3.96 12 7.92 12 12 C8.04 12 4.08 12 0 12 C0 8.04 0 4.08 0 0 Z " fill="#FEFEFE" transform="translate(166,117)"/>
<path d="M0 0 C3.96 0 7.92 0 12 0 C12 3.96 12 7.92 12 12 C8.04 12 4.08 12 0 12 C0 8.04 0 4.08 0 0 Z " fill="#FEFEFE" transform="translate(26,117)"/>
<path d="M0 0 C3.96 0 7.92 0 12 0 C12 3.96 12 7.92 12 12 C8.04 12 4.08 12 0 12 C0 8.04 0 4.08 0 0 Z " fill="#E7E7E7" transform="translate(13,117)"/>
<path d="M0 0 C3.96 0 7.92 0 12 0 C12 3.96 12 7.92 12 12 C8.04 12 4.08 12 0 12 C0 8.04 0 4.08 0 0 Z " fill="#FEFEFE" transform="translate(166,79)"/>
<path d="M0 0 C3.96 0 7.92 0 12 0 C12 3.96 12 7.92 12 12 C8.04 12 4.08 12 0 12 C0 8.04 0 4.08 0 0 Z " fill="#E7E7E7" transform="translate(26,79)"/>
<path d="M0 0 C3.96 0 7.92 0 12 0 C12 3.96 12 7.92 12 12 C8.04 12 4.08 12 0 12 C0 8.04 0 4.08 0 0 Z " fill="#FEFEFE" transform="translate(13,79)"/>
<path d="M0 0 C3.96 0 7.92 0 12 0 C12 3.96 12 7.92 12 12 C8.04 12 4.08 12 0 12 C0 8.04 0 4.08 0 0 Z " fill="#FEFEFE" transform="translate(179,66)"/>
<path d="M0 0 C3.96 0 7.92 0 12 0 C12 3.96 12 7.92 12 12 C8.04 12 4.08 12 0 12 C0 8.04 0 4.08 0 0 Z " fill="#E7E6E6" transform="translate(166,66)"/>
<path d="M0 0 C3.96 0 7.92 0 12 0 C12 3.96 12 7.92 12 12 C8.04 12 4.08 12 0 12 C0 8.04 0 4.08 0 0 Z " fill="#FEFEFE" transform="translate(26,28)"/>
<path d="M0 0 C3.96 0 7.92 0 12 0 C12 3.96 12 7.92 12 12 C8.04 12 4.08 12 0 12 C0 8.04 0 4.08 0 0 Z " fill="#E7E7E7" transform="translate(13,28)"/>
<path d="M0 0 C3.96 0 7.92 0 12 0 C12 3.96 12 7.92 12 12 C8.04 12 4.08 12 0 12 C0 8.04 0 4.08 0 0 Z " fill="#FEFEFE" transform="translate(179,15)"/>
<path d="M0 0 C3.96 0 7.92 0 12 0 C12 3.96 12 7.92 12 12 C8.04 12 4.08 12 0 12 C0 8.04 0 4.08 0 0 Z " fill="#FEFEFE" transform="translate(115,15)"/>
<path d="M0 0 C3.96 0 7.92 0 12 0 C12 3.96 12 7.92 12 12 C8.04 12 4.08 12 0 12 C0 8.04 0 4.08 0 0 Z " fill="#E7E7E7" transform="translate(77,15)"/>
<path d="M0 0 C3.96 0 7.92 0 12 0 C12 3.96 12 7.92 12 12 C8.04 12 4.08 12 0 12 C0 8.04 0 4.08 0 0 Z " fill="#FEFEFE" transform="translate(64,15)"/>
<path d="M0 0 C3.96 0 7.92 0 12 0 C12 3.96 12 7.92 12 12 C8.04 12 4.08 12 0 12 C0 8.04 0 4.08 0 0 Z " fill="#E7E7E7" transform="translate(26,15)"/>
<path d="M0 0 C1.65322266 0.01740234 1.65322266 0.01740234 3.33984375 0.03515625 C4.99693359 0.04869141 4.99693359 0.04869141 6.6875 0.0625 C7.54214844 0.07410156 8.39679687 0.08570312 9.27734375 0.09765625 C10.08984375 3.34765625 10.08984375 3.34765625 10.27734375 7.09765625 C7.96484375 9.34765625 7.96484375 9.34765625 5.27734375 11.09765625 C4.28734375 12.58265625 4.28734375 12.58265625 3.27734375 14.09765625 C3.27734375 13.43765625 3.27734375 12.77765625 3.27734375 12.09765625 C0.96734375 12.09765625 -1.34265625 12.09765625 -3.72265625 12.09765625 C-3.74952904 10.28523573 -3.7689934 8.47270392 -3.78515625 6.66015625 C-3.79675781 5.65082031 -3.80835938 4.64148437 -3.8203125 3.6015625 C-3.68353101 0.09448515 -3.5276627 0.12653023 0 0 Z " fill="#E6E7E7" transform="translate(41.72265625,27.90234375)"/>
<path d="M0 0 C2.97 0 5.94 0 9 0 C9 4.29 9 8.58 9 13 C5.04 13 1.08 13 -3 13 C-1.125 2.25 -1.125 2.25 0 0 Z " fill="#FDFDFD" transform="translate(182,40)"/>
<path d="M0 0 C3.96 0 7.92 0 12 0 C12 3.63 12 7.26 12 11 C8.04 11 4.08 11 0 11 C0 7.37 0 3.74 0 0 Z " fill="#FEFEFE" transform="translate(128,182)"/>
<path d="M0 0 C3.96 0 7.92 0 12 0 C12 3.63 12 7.26 12 11 C8.04 11 4.08 11 0 11 C0 7.37 0 3.74 0 0 Z " fill="#FEFEFE" transform="translate(77,182)"/>
<path d="M0 0 C1.65 0 3.3 0 5 0 C5 8.58 5 17.16 5 26 C3.35 26 1.7 26 0 26 C0 17.42 0 8.84 0 0 Z " fill="#FBFCFC" transform="translate(161,91)"/>
<path d="M0 0 C3.96 0 7.92 0 12 0 C12 4.29 12 8.58 12 13 C11.030625 12.0925 10.06125 11.185 9.0625 10.25 C5.09532699 6.81937088 0.86163245 4.87409868 -4 3 C-2.68 2.67 -1.36 2.34 0 2 C0 1.34 0 0.68 0 0 Z " fill="#DEE1DE" transform="translate(166,15)"/>
<path d="M0 0 C2.31 0 4.62 0 7 0 C7 4.29 7 8.58 7 13 C4.69 13 2.38 13 0 13 C0 8.71 0 4.42 0 0 Z " fill="#FBFCFC" transform="translate(38,155)"/>
<path d="M0 0 C2.31 0 4.62 0 7 0 C7 4.29 7 8.58 7 13 C4.69 13 2.38 13 0 13 C0 8.71 0 4.42 0 0 Z " fill="#E7E7E8" transform="translate(38,142)"/>
<path d="M0 0 C2.31 0 4.62 0 7 0 C7 4.29 7 8.58 7 13 C4.69 13 2.38 13 0 13 C0 8.71 0 4.42 0 0 Z " fill="#FBFCFC" transform="translate(38,104)"/>
<path d="M0 0 C2.31 0 4.62 0 7 0 C7 4.29 7 8.58 7 13 C4.69 13 2.38 13 0 13 C0 8.71 0 4.42 0 0 Z " fill="#E7E8E8" transform="translate(38,91)"/>
<path d="M0 0 C2.31 0 4.62 0 7 0 C7 4.29 7 8.58 7 13 C4.69 13 2.38 13 0 13 C0 8.71 0 4.42 0 0 Z " fill="#FBFCFD" transform="translate(38,40)"/>
<path d="M0 0 C1.65 0 3.3 0 5 0 C5 3.96 5 7.92 5 12 C0.71 12 -3.58 12 -8 12 C-7.236875 11.319375 -6.47375 10.63875 -5.6875 9.9375 C-2.67156669 6.64101475 -1.54120983 4.13693165 0 0 Z " fill="#E5E6E8" transform="translate(161,168)"/>
<path d="M0 0 C8.58 0 17.16 0 26 0 C26 0.66 26 1.32 26 2 C25.01 2.02578125 24.02 2.0515625 23 2.078125 C15.46465897 2.36809255 9.55685138 2.96501453 3 7 C2.01 7.33 1.02 7.66 0 8 C0 5.36 0 2.72 0 0 Z " fill="#F7F9F7" transform="translate(140,15)"/>
<path d="M0 0 C2.31 0 4.62 0 7 0 C7 3.96 7 7.92 7 12 C4.69 12 2.38 12 0 12 C0 8.04 0 4.08 0 0 Z " fill="#E7E7E8" transform="translate(38,117)"/>
<path d="M0 0 C1.98 0 3.96 0 6 0 C6 3.96 6 7.92 6 12 C4.02 12 2.04 12 0 12 C0 8.04 0 4.08 0 0 Z " fill="#FDFDFD" transform="translate(38,130)"/>
<path d="M0 0 C1.98 0 3.96 0 6 0 C6 3.96 6 7.92 6 12 C4.02 12 2.04 12 0 12 C0 8.04 0 4.08 0 0 Z " fill="#FDFDFD" transform="translate(38,79)"/>
<path d="M0 0 C1.65 0 3.3 0 5 0 C5 4.29 5 8.58 5 13 C3.35 13 1.7 13 0 13 C0 8.71 0 4.42 0 0 Z " fill="#FBFCFC" transform="translate(161,155)"/>
<path d="M0 0 C1.65 0 3.3 0 5 0 C5 4.29 5 8.58 5 13 C3.35 13 1.7 13 0 13 C0 8.71 0 4.42 0 0 Z " fill="#E8E8E8" transform="translate(161,142)"/>
<path d="M0 0 C1.65 0 3.3 0 5 0 C5 3.96 5 7.92 5 12 C3.35 12 1.7 12 0 12 C0 8.04 0 4.08 0 0 Z " fill="#FCFCFD" transform="translate(161,130)"/>
<path d="M0 0 C1.65 0 3.3 0 5 0 C5 3.96 5 7.92 5 12 C3.35 12 1.7 12 0 12 C0 8.04 0 4.08 0 0 Z " fill="#FCFCFD" transform="translate(161,66)"/>
<path d="M0 0 C4.29 0 8.58 0 13 0 C13 1.32 13 2.64 13 4 C12.09507813 4.09087891 12.09507813 4.09087891 11.171875 4.18359375 C9.97304688 4.30927734 9.97304688 4.30927734 8.75 4.4375 C7.96109375 4.51871094 7.1721875 4.59992187 6.359375 4.68359375 C4.17635361 4.97634993 2.1226818 5.42064419 0 6 C0 4.02 0 2.04 0 0 Z " fill="#FDFDFD" transform="translate(51,28)"/>
<path d="M0 0 C2.64 0 5.28 0 8 0 C7.34 2.97 6.68 5.94 6 9 C4.02 8.01 2.04 7.02 0 6 C0 4.02 0 2.04 0 0 Z " fill="#F5F8F8" transform="translate(128,28)"/>
<path d="M0 0 C4.29 0 8.58 0 13 0 C13 1.32 13 2.64 13 4 C8.71 4 4.42 4 0 4 C0 2.68 0 1.36 0 0 Z " fill="#FEFEFE" transform="translate(102,28)"/>
<path d="M0 0 C4.29 0 8.58 0 13 0 C13 1.32 13 2.64 13 4 C8.71 4 4.42 4 0 4 C0 2.68 0 1.36 0 0 Z " fill="#E8E8E8" transform="translate(89,28)"/>
<path d="M0 0 C1.32 0 2.64 0 4 0 C4.33 3.96 4.66 7.92 5 12 C3.35 12 1.7 12 0 12 C0 8.04 0 4.08 0 0 Z " fill="#E6E7E7" transform="translate(161,79)"/>
<path d="M0 0 C0.66 0 1.32 0 2 0 C1.67 1.98 1.34 3.96 1 6 C2.32 6 3.64 6 5 6 C4.67 6.99 4.34 7.98 4 9 C1.36 9 -1.28 9 -4 9 C-4 4.32409833 -3.11997802 3.30350614 0 0 Z " fill="#5B9259" transform="translate(86,152)"/>
<path d="M0 0 C1.32 0 2.64 0 4 0 C4 3.96 4 7.92 4 12 C2.68 12 1.36 12 0 12 C0 8.04 0 4.08 0 0 Z " fill="#E6E7E7" transform="translate(161,117)"/>
<path d="M0 0 C3.96 0 7.92 0 12 0 C12 1.32 12 2.64 12 4 C8.04 4 4.08 4 0 4 C0 2.68 0 1.36 0 0 Z " fill="#E7E7E7" transform="translate(115,28)"/>
<path d="M0 0 C3.96 0 7.92 0 12 0 C12 1.32 12 2.64 12 4 C8.04 4 4.08 4 0 4 C0 2.68 0 1.36 0 0 Z " fill="#FEFEFE" transform="translate(77,28)"/>
<path d="M0 0 C3.96 0 7.92 0 12 0 C12 1.32 12 2.64 12 4 C8.04 4 4.08 4 0 4 C0 2.68 0 1.36 0 0 Z " fill="#E7E7E7" transform="translate(64,28)"/>
<path d="M0 0 C1.32 0.99 2.64 1.98 4 3 C3.67 4.32 3.34 5.64 3 7 C0.69 7 -1.62 7 -4 7 C-2.68 4.69 -1.36 2.38 0 0 Z " fill="#74A56E" transform="translate(125,154)"/>
<path d="M0 0 C2.5 1.375 2.5 1.375 5 3 C5 3.66 5 4.32 5 5 C0.71 5 -3.58 5 -8 5 C-8 4.67 -8 4.34 -8 4 C-6.576875 3.566875 -6.576875 3.566875 -5.125 3.125 C-1.94788422 2.23174891 -1.94788422 2.23174891 0 0 Z " fill="#D6E4E7" transform="translate(141,58)"/>
<path d="M0 0 C0.33 0.66 0.66 1.32 1 2 C-0.50649253 5.09667909 -2.15179193 7.14817784 -4.625 9.5625 C-6.88661207 11.88362818 -7.6512354 12.86111862 -8 16 C-8.66 16 -9.32 16 -10 16 C-10.34620713 12.79479209 -10.35305698 11.44830026 -8.3203125 8.8671875 C-7.59585938 8.20976562 -6.87140625 7.55234375 -6.125 6.875 C-3.66725193 4.61105285 -1.86900058 2.80350087 0 0 Z " fill="#70A36E" transform="translate(90,145)"/>
<path d="M0 0 C0.99 0.33 1.98 0.66 3 1 C0.03 3.97 -2.94 6.94 -6 10 C-6.66 9.67 -7.32 9.34 -8 9 C-5.36 6.03 -2.72 3.06 0 0 Z " fill="#73A66D" transform="translate(101,133)"/>
</svg>
